<?xml version="1.0" encoding="UTF-8" standalone="no"?>
<!-- Created with Inkscape (http://www.inkscape.org/) -->

<svg
   version="1.1"
   width="400"
   height="auto"
   viewBox="250 150 500 150"
   preserveAspectRatio="xMidYMid meet"
   xmlns="http://www.w3.org/2000/svg">
  <g id="layer-MC0" fill="#ffffff">
    <path
       id="path45"
       d="M 0,0 C 3.003,0 4.943,1.564 4.943,3.754 4.943,5.944 3.003,7.508 0,7.508 -3.003,7.508 -4.943,5.944 -4.943,3.754 -4.943,1.564 -3.003,0 0,0 M 0,9.541 C 4.411,9.541 7.289,7.007 7.289,3.754 7.289,0.5 4.411,-2.033 0,-2.033 c -4.411,0 -7.289,2.533 -7.289,5.787 0,3.253 2.878,5.787 7.289,5.787 m 7.007,6.913 C 6.882,16.048 6.694,15.829 6.35,15.672 5.975,15.516 5.568,15.485 5.224,15.485 c -0.313,0 -0.407,0.312 -0.313,0.657 0.563,2.314 0.845,4.942 0.782,7.101 h -9.854 c -0.563,0 -1.094,-0.094 -1.626,-0.188 -0.501,-0.094 -1.001,-0.094 -1.439,-0.094 -0.313,0 -0.501,0.125 -0.688,0.313 -0.438,0.5 -0.751,0.876 -0.876,1.783 -0.032,0.219 0.094,0.313 0.375,0.282 0.813,-0.126 1.595,-0.126 2.534,-0.126 H 4.536 c 0.438,0 0.938,0.126 1.251,0.344 0.25,0.157 0.657,0.157 1.001,0 0.469,-0.218 0.97,-0.562 1.408,-1 C 8.384,24.369 8.321,24.15 8.321,23.9 8.165,21.022 7.695,18.519 7.007,16.454 m -17.643,-5.349 c -0.5,-0.094 -1.001,-0.125 -1.439,-0.125 -0.313,0 -0.532,0.094 -0.688,0.313 -0.376,0.532 -0.594,1.22 -0.751,1.939 -0.062,0.219 0.094,0.344 0.375,0.313 0.814,-0.125 1.846,-0.188 2.941,-0.188 h 8.071 v 3.379 c 0,0.313 -0.031,0.72 -0.376,0.938 -0.406,0.251 -0.813,0.438 -1.22,0.532 -0.187,0.031 -0.344,0.094 -0.344,0.25 0,0.345 0.094,0.657 0.219,1.002 0.063,0.062 0.157,0.156 0.376,0.156 1.22,0.031 2.471,-0.125 3.628,-0.438 C 0.407,19.113 0.469,18.832 0.438,18.55 0.313,17.643 0.219,16.58 0.219,15.516 v -2.159 h 8.54 c 0.563,0 1.157,0.126 1.689,0.219 0.532,0.094 1.064,0.126 1.533,0.126 0.313,0 0.563,-0.063 0.72,-0.313 0.375,-0.595 0.656,-1.314 0.813,-1.94 0.062,-0.219 -0.094,-0.344 -0.376,-0.313 -0.875,0.126 -1.939,0.188 -3.096,0.188 H -9.009 c -0.563,0 -1.095,-0.125 -1.627,-0.219"
       style="fill:#ffffff;fill-opacity:1;fill-rule:nonzero;stroke:none"
       transform="matrix(1.3333333,0,0,-1.3333333,288.98787,230.30347)"
       clip-path="url(#clipPath46)" />
    <path
       id="path47"
       d="M 0,0 C 3.003,0 4.943,1.376 4.943,3.566 4.943,5.756 3.003,7.132 0,7.132 -3.003,7.132 -4.943,5.756 -4.943,3.566 -4.943,1.376 -3.003,0 0,0 m 0,9.166 c 4.411,0 7.289,-2.346 7.289,-5.6 0,-3.253 -2.878,-5.599 -7.289,-5.599 -4.411,0 -7.289,2.346 -7.289,5.599 0,3.254 2.878,5.6 7.289,5.6 m -7.602,9.447 v 3.816 c 0,0.501 0.032,1.001 -0.312,1.189 -0.313,0.188 -0.782,0.344 -1.095,0.375 -0.188,0.032 -0.313,0.126 -0.313,0.251 0,0.344 0,0.719 0.094,1.063 0.031,0.094 0.219,0.157 0.375,0.157 0.876,0.062 2.252,-0.032 3.379,-0.188 h 8.508 c 0.501,0 1.064,0.094 1.564,0.188 0.501,0.093 1.033,0.125 1.471,0.125 0.25,0 0.5,-0.063 0.657,-0.282 0.406,-0.531 0.657,-1.314 0.75,-1.939 C 7.508,23.149 7.383,23.024 7.132,23.055 6.288,23.18 5.318,23.243 4.223,23.243 h -9.478 v -4.317 c 0,-0.501 0.187,-0.626 0.657,-0.626 h 8.133 c 0.563,0 1.157,0.125 1.689,0.219 0.532,0.094 1.064,0.125 1.533,0.125 0.313,0 0.563,-0.062 0.719,-0.313 C 7.789,17.8 8.102,16.986 8.196,16.392 8.227,16.173 8.102,16.048 7.821,16.079 6.945,16.204 5.881,16.267 4.724,16.267 H 1.157 v -3.41 h 7.602 c 0.563,0 1.157,0.125 1.689,0.219 0.532,0.094 1.064,0.125 1.533,0.125 0.313,0 0.563,-0.063 0.72,-0.313 0.375,-0.594 0.656,-1.314 0.813,-1.939 0.062,-0.219 -0.094,-0.344 -0.375,-0.313 -0.876,0.125 -1.94,0.188 -3.097,0.188 H -9.009 c -0.563,0 -1.095,-0.126 -1.627,-0.219 -0.5,-0.094 -1.001,-0.126 -1.439,-0.126 -0.313,0 -0.532,0.094 -0.688,0.313 -0.375,0.532 -0.594,1.22 -0.751,1.94 -0.062,0.219 0.094,0.344 0.376,0.313 0.813,-0.126 1.845,-0.188 2.94,-0.188 h 9.009 v 3.41 h -3.253 c -0.532,0 -0.907,0.031 -1.314,0.25 -0.719,0.407 -1.032,0.657 -1.47,1.126 -0.251,0.282 -0.376,0.563 -0.376,0.97"
       style="fill:#ffffff;fill-opacity:1;fill-rule:nonzero;stroke:none"
       transform="matrix(1.3333333,0,0,-1.3333333,326.53333,230.30347)"
       clip-path="url(#clipPath48)" />
    <path
       id="path49"
       d="m 0,0 c -0.626,0.5 -1.22,0.845 -1.939,1.189 -0.157,0.062 -0.251,0.156 -0.22,0.313 0.094,0.344 0.251,0.688 0.47,0.969 0.062,0.094 0.25,0.125 0.406,0.094 C 0.094,2.221 1.595,1.689 2.815,0.97 3.066,0.813 3.128,0.626 3.097,0.344 3.034,-0.563 2.878,-1.627 2.878,-2.69 v -9.51 c 0,-0.313 -0.063,-0.532 -0.313,-0.688 -0.438,-0.313 -1.001,-0.595 -1.533,-0.595 -0.375,0 -0.5,0.126 -0.5,0.501 v 5.818 h -1.158 c -0.563,0 -1.126,-0.125 -1.658,-0.219 -0.5,-0.093 -1.032,-0.125 -1.47,-0.125 -0.313,0 -0.532,0.094 -0.688,0.313 -0.313,0.469 -0.657,1.189 -0.751,1.908 -0.031,0.219 0.094,0.344 0.376,0.313 0.813,-0.125 1.783,-0.187 2.878,-0.187 h 2.471 v 3.722 C 0.532,-0.813 0.438,-0.344 0,0 M -9.635,-23.493 H 0.407 v 2.784 H -9.635 Z m -2.346,-2.721 v 7.758 c 0,0.5 0.031,0.938 -0.407,1.157 -0.5,0.25 -1.032,0.438 -1.501,0.563 -0.157,0.031 -0.25,0.063 -0.313,0.219 0,0.344 0.125,0.751 0.25,1.095 0.063,0.063 0.157,0.125 0.376,0.125 1.22,0 2.721,-0.281 3.878,-0.751 0.251,-0.094 0.313,-0.344 0.282,-0.625 -0.094,-0.626 -0.188,-1.345 -0.219,-2.065 H 0.407 v 1.251 c 0,0.501 0.031,0.939 -0.407,1.158 -0.5,0.25 -1.032,0.438 -1.501,0.563 -0.157,0.031 -0.251,0.062 -0.313,0.219 0,0.344 0.125,0.751 0.25,1.095 0.063,0.062 0.156,0.125 0.375,0.125 1.22,0 2.722,-0.282 3.879,-0.751 0.25,-0.094 0.313,-0.344 0.282,-0.626 -0.125,-0.907 -0.219,-1.97 -0.219,-3.034 v -6.382 c 0,-0.312 -0.063,-0.531 -0.313,-0.688 -0.438,-0.313 -1.001,-0.594 -1.533,-0.594 -0.375,0 -0.5,0.125 -0.5,0.5 v 0.376 H -9.635 c -0.031,-0.25 -0.094,-0.438 -0.313,-0.595 -0.438,-0.312 -1.001,-0.594 -1.532,-0.594 -0.376,0 -0.501,0.125 -0.501,0.501 m -2.878,16.079 h 7.039 v 3.785 h -7.039 z m 9.072,-2.315 c -0.438,-0.313 -1.001,-0.595 -1.533,-0.595 -0.375,0 -0.5,0.126 -0.5,0.501 v 0.375 h -7.039 c 0,-0.313 -0.094,-0.5 -0.313,-0.657 -0.438,-0.312 -1.001,-0.594 -1.533,-0.594 -0.375,0 -0.5,0.125 -0.5,0.501 v 9.197 c 0,0.531 0,1.126 -0.376,1.345 -0.531,0.312 -1.094,0.531 -1.532,0.688 -0.157,0.031 -0.251,0.062 -0.313,0.219 0.031,0.344 0.156,0.751 0.281,1.095 0.063,0.062 0.188,0.125 0.407,0.094 1.157,-0.094 2.69,-0.47 3.816,-0.908 0.251,-0.125 0.313,-0.375 0.282,-0.657 -0.094,-0.813 -0.219,-1.626 -0.219,-2.533 h 7.039 v 2.064 c 0,0.626 0.031,1.001 -0.376,1.251 -0.532,0.313 -1.126,0.595 -1.564,0.751 -0.156,0.063 -0.25,0.094 -0.282,0.251 0.032,0.344 0.188,0.75 0.344,1.063 0.063,0.063 0.188,0.125 0.407,0.094 1.158,-0.125 2.659,-0.563 3.754,-1.064 0.25,-0.125 0.313,-0.344 0.282,-0.625 -0.094,-0.907 -0.219,-1.909 -0.219,-2.972 v -8.196 c 0,-0.313 -0.063,-0.532 -0.313,-0.688"
       style="fill:#ffffff;fill-opacity:1;fill-rule:nonzero;stroke:none"
       transform="matrix(1.3333333,0,0,-1.3333333,373.1296,197.39467)"
       clip-path="url(#clipPath50)" />
    <path
       id="path51"
       d="M 0,0 H 5.787 V 2.784 H 0.501 V 0.813 C 0.501,0.5 0.438,0.282 0.188,0.125 0.125,0.063 0.063,0.031 0,0 m -4.286,9.823 c 0,0.5 0.032,0.969 -0.313,1.157 -0.312,0.188 -0.781,0.313 -1.094,0.344 -0.188,0.031 -0.313,0.125 -0.313,0.25 -0.032,0.282 0,0.626 0.094,0.97 0.031,0.094 0.219,0.157 0.375,0.157 0.876,0.062 2.252,-0.032 3.379,-0.126 h 8.852 c 0.376,0 0.689,0 1.033,0.032 v 2.346 h -8.728 c -0.563,0 -1.095,-0.125 -1.627,-0.219 -0.5,-0.094 -1.001,-0.125 -1.439,-0.125 -0.313,0 -0.532,0.094 -0.688,0.313 -0.344,0.5 -0.625,1.032 -0.751,1.751 -0.031,0.219 0.094,0.345 0.376,0.313 0.813,-0.125 1.72,-0.187 2.815,-0.187 h 9.353 c 0.438,0 0.751,0.125 1.033,0.344 0.219,0.156 0.5,0.156 0.844,0 0.47,-0.219 0.97,-0.47 1.408,-0.845 0.188,-0.188 0.219,-0.438 0.188,-0.72 -0.125,-0.844 -0.344,-2.002 -0.563,-2.846 0.219,-0.063 0.438,-0.219 0.532,-0.407 0.218,-0.406 0.344,-0.782 0.344,-1.314 0,-0.219 -0.126,-0.313 -0.376,-0.313 C 9.51,10.73 8.446,10.761 7.351,10.761 H -1.94 V 8.915 c 0,-0.5 0.188,-0.625 0.657,-0.625 h 8.447 c 0.563,0 1.157,0.125 1.689,0.219 0.532,0.094 1.063,0.125 1.533,0.125 0.312,0 0.563,-0.063 0.719,-0.313 0.344,-0.563 0.657,-1.22 0.782,-1.783 C 11.95,6.319 11.793,6.194 11.512,6.225 10.636,6.35 9.572,6.413 8.415,6.413 h -9.666 c -0.532,0 -0.907,0.031 -1.345,0.219 -0.626,0.281 -1.002,0.563 -1.283,0.845 -0.281,0.281 -0.407,0.594 -0.407,1 z M -7.476,2.565 C -7.977,2.471 -8.478,2.44 -8.915,2.44 c -0.313,0 -0.532,0.094 -0.689,0.313 -0.375,0.532 -0.594,1.126 -0.75,1.846 -0.063,0.219 0.094,0.344 0.375,0.312 0.813,-0.125 1.846,-0.187 2.94,-0.187 h 18.957 c 0.564,0 1.158,0.125 1.69,0.219 0.532,0.093 1.063,0.125 1.533,0.125 0.312,0 0.563,-0.063 0.719,-0.313 0.375,-0.594 0.657,-1.22 0.813,-1.846 C 16.736,2.69 16.58,2.565 16.298,2.596 15.422,2.722 14.358,2.784 13.201,2.784 H 8.071 V 0.813 C 8.071,0.5 8.008,0.282 7.758,0.125 7.695,0.063 7.633,0.031 7.57,0 h 0.094 c 0.438,0 0.751,0.125 1.032,0.344 0.219,0.156 0.501,0.156 0.845,0 0.469,-0.219 0.97,-0.469 1.408,-0.844 0.187,-0.188 0.219,-0.438 0.187,-0.72 -0.125,-0.845 -0.344,-1.939 -0.563,-2.784 0.282,-0.031 0.563,-0.219 0.689,-0.438 0.219,-0.407 0.344,-0.782 0.344,-1.314 0,-0.219 -0.125,-0.313 -0.376,-0.313 -0.938,0.032 -2.002,0.063 -3.097,0.063 h -9.76 v -1.94 c 0,-0.5 0.188,-0.625 0.657,-0.625 h 8.947 c 0.563,0 1.157,0.125 1.689,0.219 0.532,0.094 1.064,0.125 1.533,0.125 0.313,0 0.563,-0.063 0.719,-0.313 0.345,-0.563 0.657,-1.22 0.783,-1.783 0.062,-0.219 -0.094,-0.344 -0.376,-0.313 -0.876,0.125 -1.939,0.188 -3.097,0.188 h -9.916 c -0.532,0 -1.126,0.062 -1.533,0.188 -0.594,0.187 -1.126,0.5 -1.408,0.969 -0.187,0.313 -0.344,0.72 -0.344,1.126 v 1.22 c 0,0.501 0.031,0.97 -0.313,1.158 -0.313,0.188 -0.782,0.313 -1.094,0.344 -0.188,0.031 -0.313,0.125 -0.313,0.25 -0.032,0.282 0,0.626 0.094,0.97 0.031,0.094 0.219,0.156 0.375,0.156 0.876,0.063 2.252,-0.031 3.378,-0.125 h 9.322 c 0.313,0 0.595,0 0.876,0.031 v 2.315 h -9.197 c -0.563,0 -1.095,-0.125 -1.626,-0.219 -0.501,-0.093 -1.001,-0.125 -1.439,-0.125 -0.313,0 -0.532,0.094 -0.689,0.313 -0.344,0.501 -0.625,1.032 -0.75,1.752 -0.031,0.219 0.094,0.344 0.375,0.313 C -4.16,0.063 -3.253,0 -2.158,0 h 0.375 V 2.784 H -5.85 c -0.563,0 -1.095,-0.125 -1.626,-0.219"
       style="fill:#ffffff;fill-opacity:1;fill-rule:nonzero;stroke:none"
       transform="matrix(1.3333333,0,0,-1.3333333,397.41133,218.166)"
       clip-path="url(#clipPath52)" />
    <path
       id="path53"
       d="m 0,0 c 0.563,0 1.126,0.125 1.658,0.219 0.5,0.094 1.032,0.125 1.47,0.125 0.313,0 0.532,-0.094 0.688,-0.313 0.313,-0.469 0.657,-1.22 0.751,-1.939 0.031,-0.219 -0.094,-0.344 -0.375,-0.313 -0.814,0.125 -1.783,0.188 -2.878,0.188 h -2.597 v -13.014 c 0,-0.313 -0.062,-0.531 -0.312,-0.688 -0.438,-0.313 -1.001,-0.594 -1.533,-0.594 -0.376,0 -0.501,0.125 -0.501,0.5 v 23.9 c 0,0.625 -0.094,1.095 -0.532,1.439 -0.625,0.5 -1.22,0.844 -1.939,1.189 -0.157,0.062 -0.25,0.156 -0.219,0.312 0.094,0.344 0.25,0.689 0.469,0.97 0.063,0.094 0.251,0.125 0.407,0.094 1.376,-0.344 2.878,-0.876 4.098,-1.596 0.25,-0.156 0.313,-0.344 0.281,-0.625 C -1.126,8.947 -1.283,7.883 -1.283,6.82 V 0 Z m -13.389,0.751 c 2.252,-2.346 4.474,-5.224 6.1,-7.946 0.219,-0.344 -0.031,-0.594 -0.188,-0.782 -0.25,-0.25 -0.844,-0.563 -1.157,-0.657 -0.344,-0.156 -0.532,-0.031 -0.751,0.376 -1.313,2.314 -3.034,4.723 -4.973,6.975 -1.596,-2.94 -3.629,-5.38 -5.944,-7.664 -0.375,-0.344 -0.594,-0.406 -1.001,-0.438 -0.376,0.063 -0.657,0.157 -0.97,0.313 -0.25,0.094 -0.25,0.469 -0.031,0.688 3.378,3.692 6.726,8.572 7.883,13.608 0.125,0.501 0.031,0.845 -0.313,1.126 -0.375,0.313 -0.876,0.595 -1.314,0.751 -0.156,0.063 -0.219,0.188 -0.219,0.313 0,0.313 0.188,0.657 0.376,0.938 0.062,0.094 0.219,0.125 0.406,0.094 1.127,-0.188 2.284,-0.626 3.41,-1.282 0.375,-0.219 0.469,-0.72 0.375,-1.127 -0.437,-1.97 -1.001,-3.691 -1.689,-5.286"
       style="fill:#ffffff;fill-opacity:1;fill-rule:nonzero;stroke:none"
       transform="matrix(1.3333333,0,0,-1.3333333,451.8908,210.07427)"
       clip-path="url(#clipPath54)" />
    <path
       id="path55"
       d="m 0,0 v 5.975 h -10.698 l 0.125,-6.006 h 9.541 c 0.375,0 0.688,0 1.032,0.031 m -13.107,5.38 c -0.031,0.438 0,0.845 -0.313,1.064 -0.219,0.157 -0.469,0.25 -0.751,0.313 -0.187,0.031 -0.313,0.125 -0.313,0.25 -0.031,0.344 -0.031,0.782 0.063,1.095 0.031,0.094 0.219,0.156 0.375,0.156 0.814,0.032 1.971,0 3.003,-0.25 h 10.23 c 0.438,0 0.751,0.125 1.032,0.344 0.219,0.157 0.501,0.157 0.845,0 C 1.533,8.133 2.096,7.883 2.534,7.508 2.722,7.32 2.722,7.039 2.722,6.757 2.659,4.38 2.378,2.471 1.971,0.125 2.221,0.094 2.44,-0.094 2.565,-0.282 c 0.219,-0.406 0.344,-1.001 0.344,-1.532 0,-0.219 -0.125,-0.313 -0.375,-0.313 -0.939,0.031 -1.814,0.062 -2.909,0.062 h -10.23 c -0.062,-0.25 -0.187,-0.375 -0.438,-0.469 -0.344,-0.125 -0.75,-0.219 -1.126,-0.188 -0.406,0.032 -0.594,0.157 -0.594,0.563 z M -15.86,-7.664 c -0.501,-0.094 -1.001,-0.125 -1.439,-0.125 -0.313,0 -0.532,0.094 -0.688,0.312 -0.376,0.532 -0.595,1.221 -0.751,1.94 -0.063,0.219 0.094,0.344 0.375,0.313 0.814,-0.125 1.846,-0.188 2.941,-0.188 H 3.535 c 0.563,0 1.157,0.125 1.689,0.219 0.532,0.094 1.064,0.125 1.533,0.125 0.313,0 0.563,-0.062 0.72,-0.312 C 7.852,-5.975 8.133,-6.694 8.29,-7.32 8.352,-7.539 8.196,-7.664 7.914,-7.633 7.039,-7.508 5.975,-7.445 4.818,-7.445 h -8.853 v -9.009 c 0,-0.313 -0.063,-0.532 -0.313,-0.689 -0.438,-0.313 -1.064,-0.594 -1.596,-0.594 -0.375,0 -0.5,0.125 -0.5,0.5 v 9.792 h -7.789 c -0.563,0 -1.095,-0.125 -1.627,-0.219"
       style="fill:#ffffff;fill-opacity:1;fill-rule:nonzero;stroke:none"
       transform="matrix(1.3333333,0,0,-1.3333333,483.68013,207.78027)"
       clip-path="url(#clipPath56)" />
    <path
       id="path57"
       d="m 0,0 c 3.003,-2.002 6.632,-4.661 9.259,-7.32 0.282,-0.313 0.126,-0.594 0,-0.813 C 9.04,-8.477 8.603,-8.915 8.227,-9.072 7.883,-9.228 7.664,-9.166 7.414,-8.884 c -2.127,2.346 -5.631,5.036 -8.54,7.132 -2.44,-3.378 -5.224,-5.537 -8.352,-7.257 -0.438,-0.251 -0.689,-0.251 -1.064,-0.188 -0.376,0.156 -0.626,0.313 -0.876,0.532 -0.219,0.156 -0.156,0.5 0.125,0.688 3.848,2.378 7.57,5.912 9.666,10.01 0.251,0.47 0.251,0.814 -0.031,1.189 -0.281,0.375 -0.626,0.751 -1.032,1.001 -0.125,0.094 -0.157,0.219 -0.125,0.344 0.062,0.313 0.375,0.688 0.625,0.939 0.063,0.062 0.219,0.062 0.407,-0.032 C -0.751,5.036 0.25,4.38 1.189,3.472 1.501,3.191 1.47,2.596 1.283,2.252 0.876,1.439 0.438,0.719 0,0 m -11.23,-16.329 c -0.501,-0.094 -1.001,-0.125 -1.439,-0.125 -0.313,0 -0.532,0.093 -0.689,0.312 -0.375,0.532 -0.594,1.22 -0.75,1.94 -0.063,0.219 0.094,0.344 0.375,0.313 0.814,-0.125 1.846,-0.188 2.941,-0.188 h 9.009 v 3.754 c 0,0.375 -0.156,0.782 -0.438,1.001 -0.407,0.313 -0.813,0.5 -1.22,0.657 -0.156,0.031 -0.282,0.094 -0.282,0.25 0,0.344 0.157,0.751 0.282,1.064 0.031,0.093 0.156,0.093 0.375,0.093 1.22,-0.031 2.472,-0.218 3.629,-0.562 0.25,-0.063 0.313,-0.345 0.282,-0.626 -0.125,-0.907 -0.219,-1.971 -0.219,-3.035 v -2.596 h 7.539 c 0.563,0 1.157,0.125 1.689,0.219 0.532,0.094 1.064,0.125 1.533,0.125 0.312,0 0.563,-0.062 0.719,-0.313 0.376,-0.594 0.657,-1.313 0.813,-1.939 0.063,-0.219 -0.093,-0.344 -0.375,-0.313 -0.876,0.125 -1.939,0.188 -3.097,0.188 H -9.604 c -0.563,0 -1.094,-0.125 -1.626,-0.219"
       style="fill:#ffffff;fill-opacity:1;fill-rule:nonzero;stroke:none"
       transform="matrix(1.3333333,0,0,-1.3333333,515.05253,204.52693)"
       clip-path="url(#clipPath58)" />
    <path
       id="path59"
       d="m 0,0 c -3.067,0 -5.047,-1.725 -5.047,-4.121 0,-2.396 1.98,-4.121 5.047,-4.121 3.067,0 5.048,1.725 5.048,4.121 C 5.048,-1.725 3.067,0 0,0 m 0,-10.319 c -4.504,0 -7.443,2.556 -7.443,6.198 0,3.642 2.939,6.198 7.443,6.198 4.504,0 7.444,-2.556 7.444,-6.198 0,-3.642 -2.94,-6.198 -7.444,-6.198 m -7.38,-10.063 c 0,0.639 -0.063,1.214 -0.479,1.502 -0.511,0.351 -1.054,0.543 -1.629,0.703 -0.16,0.031 -0.256,0.095 -0.256,0.255 0,0.288 0.064,0.607 0.192,0.863 0.064,0.128 0.224,0.191 0.415,0.191 1.246,-0.032 2.716,-0.191 4.09,-0.67 0.255,-0.096 0.319,-0.352 0.287,-0.639 -0.128,-1.246 -0.224,-2.396 -0.224,-3.898 v -0.415 c 0,-0.511 0.192,-0.639 0.671,-0.639 h 9.201 c 0.575,0 1.182,0.128 1.725,0.224 0.543,0.095 1.086,0.127 1.565,0.127 0.32,0 0.575,-0.064 0.735,-0.319 0.32,-0.543 0.639,-1.374 0.735,-1.981 0.032,-0.223 -0.096,-0.351 -0.384,-0.319 -0.894,0.128 -1.98,0.191 -3.162,0.191 H -4.025 c -0.543,0 -1.15,0.064 -1.566,0.192 -0.607,0.192 -1.15,0.575 -1.437,1.054 -0.192,0.32 -0.352,0.735 -0.352,1.15 z m -3.514,5.495 c -0.511,-0.096 -1.022,-0.128 -1.469,-0.128 -0.32,0 -0.543,0.096 -0.703,0.32 -0.383,0.543 -0.607,1.246 -0.767,1.98 -0.064,0.224 0.096,0.352 0.384,0.32 0.83,-0.128 1.884,-0.192 3.003,-0.192 H 8.913 c 0.575,0 1.182,0.128 1.725,0.224 0.543,0.096 1.086,0.128 1.566,0.128 0.319,0 0.575,-0.064 0.734,-0.32 0.384,-0.607 0.671,-1.342 0.831,-1.981 0.064,-0.223 -0.096,-0.351 -0.383,-0.319 -0.895,0.128 -1.981,0.192 -3.163,0.192 H -9.232 c -0.575,0 -1.119,-0.128 -1.662,-0.224"
       style="fill:#ffffff;fill-opacity:1;fill-rule:nonzero;stroke:none"
       transform="matrix(1.3333333,0,0,-1.3333333,560.9444,198.25053)"
       clip-path="url(#clipPath60)" />
    <path
       id="path61"
       d="M 0,0 H 5.91 V 3.195 H 0.511 V 0.831 C 0.511,0.511 0.447,0.287 0.192,0.128 0.128,0.064 0.064,0.032 0,0 m 3.099,8.689 c 3.067,0 5.047,1.246 5.047,3.482 0,2.237 -1.98,3.483 -5.047,3.483 -3.067,0 -5.048,-1.246 -5.048,-3.483 0,-2.236 1.981,-3.482 5.048,-3.482 m 0,9.041 c 4.504,0 7.443,-2.236 7.443,-5.559 0,-3.322 -2.939,-5.558 -7.443,-5.558 -4.505,0 -7.444,2.236 -7.444,5.558 0,3.323 2.939,5.559 7.444,5.559 M -7.635,2.971 c -0.511,-0.096 -1.022,-0.128 -1.47,-0.128 -0.319,0 -0.543,0.096 -0.702,0.32 -0.384,0.543 -0.608,1.245 -0.767,1.98 -0.064,0.224 0.096,0.352 0.383,0.32 0.831,-0.128 1.885,-0.192 3.003,-0.192 h 19.359 c 0.576,0 1.183,0.128 1.726,0.224 0.543,0.095 1.086,0.127 1.565,0.127 0.319,0 0.575,-0.063 0.735,-0.319 C 16.58,4.696 16.868,3.961 17.027,3.322 17.091,3.099 16.931,2.971 16.644,3.003 15.749,3.131 14.663,3.195 13.481,3.195 H 8.242 V 0.831 C 8.242,0.511 8.178,0.287 7.923,0.128 7.859,0.064 7.795,0.032 7.731,0 h 0.096 c 0.447,0 0.767,0.128 1.054,0.351 0.224,0.16 0.511,0.16 0.863,0 0.479,-0.223 0.99,-0.479 1.437,-0.862 0.192,-0.192 0.224,-0.447 0.192,-0.735 -0.128,-0.863 -0.352,-1.981 -0.575,-2.843 0.287,-0.032 0.575,-0.224 0.703,-0.447 0.223,-0.416 0.351,-0.863 0.351,-1.406 0,-0.224 -0.128,-0.32 -0.383,-0.32 -0.959,0.032 -2.045,0.064 -3.163,0.064 h -9.967 v -2.044 c 0,-0.511 0.191,-0.639 0.671,-0.639 h 9.136 c 0.575,0 1.182,0.128 1.725,0.223 0.543,0.096 1.087,0.128 1.566,0.128 0.319,0 0.575,-0.064 0.734,-0.319 0.352,-0.575 0.671,-1.31 0.799,-1.885 0.064,-0.224 -0.096,-0.351 -0.383,-0.32 -0.895,0.128 -1.981,0.192 -3.163,0.192 H -0.703 c -0.543,0 -1.15,0.064 -1.565,0.192 -0.607,0.192 -1.15,0.511 -1.438,0.99 -0.191,0.32 -0.351,0.735 -0.351,1.15 v 1.438 c 0,0.511 0.032,0.99 -0.32,1.182 -0.319,0.192 -0.798,0.319 -1.118,0.351 -0.191,0.032 -0.319,0.128 -0.319,0.256 -0.032,0.287 0,0.639 0.096,0.99 0.032,0.096 0.223,0.16 0.383,0.16 0.894,0.064 2.3,-0.032 3.45,-0.128 h 9.52 c 0.32,0 0.607,0 0.895,0.032 v 2.3 h -9.393 c -0.575,0 -1.118,-0.128 -1.661,-0.223 -0.511,-0.096 -1.022,-0.128 -1.469,-0.128 -0.32,0 -0.543,0.096 -0.703,0.319 -0.352,0.511 -0.639,1.118 -0.767,1.853 -0.032,0.224 0.096,0.352 0.384,0.32 C -4.249,0.064 -3.322,0 -2.204,0 h 0.383 v 3.195 h -4.153 c -0.575,0 -1.118,-0.128 -1.661,-0.224"
       style="fill:#ffffff;fill-opacity:1;fill-rule:nonzero;stroke:none"
       transform="matrix(1.3333333,0,0,-1.3333333,594.94213,218.27013)"
       clip-path="url(#clipPath62)" />
    <path
       id="path63"
       d="M 0,0 H 7.243 C 7.688,0 8.245,0.167 8.385,0.585 8.524,0.975 8.635,1.504 8.691,2.034 8.719,2.229 8.747,2.34 8.942,2.368 9.276,2.423 9.471,2.423 9.778,2.396 9.973,2.368 10,2.284 10,2.061 10,1.226 10.056,-0.418 10.195,-1.337 10.251,-1.643 10.14,-1.894 9.805,-1.894 H -4.067 c -0.167,0 -0.306,0.028 -0.362,0.223 -0.084,0.25 -0.139,0.64 -0.139,0.891 0,0.139 0.083,0.251 0.25,0.251 0.502,0 1.059,0.083 1.532,0.25 0.418,0.14 0.558,0.53 0.558,1.115 v 15.265 c 0,0.334 -0.195,0.557 -0.502,0.641 -0.529,0.139 -0.752,0.222 -1.253,0.278 -0.168,0.028 -0.251,0.112 -0.251,0.251 0,0.25 0.056,0.64 0.139,0.891 0.056,0.195 0.195,0.223 0.362,0.223 h 5.488 c 0.167,0 0.306,-0.028 0.362,-0.223 0.084,-0.251 0.139,-0.641 0.139,-0.891 0,-0.139 -0.083,-0.223 -0.25,-0.251 C 1.56,16.964 1.003,16.881 0.557,16.742 0.167,16.63 0,16.435 0,16.101 Z"
       style="fill:#ffffff;fill-opacity:1;fill-rule:nonzero;stroke:none"
       transform="matrix(1.3333333,0,0,-1.3333333,277.11067,270.78427)"
       clip-path="url(#clipPath64)" />
    <path
       id="path65"
       d="M 0,0 H 6.351 L 3.176,9.304 Z m 1.671,10.697 c 0.084,0.223 0.168,0.418 0.446,0.557 l 1.421,0.696 c 0.278,0.167 0.557,0.167 0.668,-0.111 l 6.797,-18.497 c 0.112,-0.306 0.223,-0.473 0.557,-0.64 0.307,-0.168 0.641,-0.251 1.198,-0.335 0.167,-0.027 0.362,-0.195 0.418,-0.334 0.111,-0.278 0.167,-0.418 0.223,-0.641 0.055,-0.195 -0.167,-0.306 -0.334,-0.306 H 7.744 c -0.167,0 -0.306,0.028 -0.362,0.223 -0.084,0.251 -0.139,0.557 -0.139,0.808 0,0.139 0.083,0.223 0.25,0.25 0.39,0.056 0.725,0.14 1.087,0.335 0.195,0.111 0.195,0.306 0.083,0.613 l -1.699,4.902 h -7.549 l -1.671,-4.902 c -0.112,-0.307 -0.112,-0.474 0.083,-0.586 0.307,-0.195 0.613,-0.306 1.059,-0.362 0.167,-0.027 0.251,-0.111 0.251,-0.25 0,-0.251 -0.056,-0.557 -0.14,-0.808 -0.056,-0.195 -0.195,-0.223 -0.362,-0.223 h -5.46 c -0.167,0 -0.39,0.111 -0.334,0.306 0.056,0.223 0.111,0.363 0.223,0.641 0.083,0.223 0.251,0.307 0.418,0.334 0.557,0.084 0.919,0.167 1.225,0.335 0.335,0.167 0.446,0.334 0.558,0.64 z"
       style="fill:#ffffff;fill-opacity:1;fill-rule:nonzero;stroke:none"
       transform="matrix(1.3333333,0,0,-1.3333333,302.37027,261.42453)"
       clip-path="url(#clipPath66)" />
    <path
       id="path67"
       d="m 0,0 c 0.056,0.279 0.083,0.501 0.362,0.641 l 0.947,0.39 C 1.588,1.17 1.839,1.142 1.922,0.864 l 4.791,-17.801 3.566,15.962 c 0.056,0.279 0.056,0.474 -0.167,0.557 -0.334,0.139 -0.725,0.223 -1.059,0.251 -0.167,0.028 -0.25,0.111 -0.25,0.25 0,0.223 0.055,0.613 0.139,0.836 0.055,0.195 0.167,0.223 0.334,0.223 h 4.736 c 0.167,0 0.278,-0.028 0.334,-0.223 0.083,-0.223 0.139,-0.613 0.139,-0.836 0,-0.139 -0.083,-0.222 -0.251,-0.25 -0.306,-0.028 -0.78,-0.056 -1.17,-0.223 -0.278,-0.111 -0.445,-0.334 -0.529,-0.613 L 7.967,-18.664 C 7.911,-18.914 7.744,-19.137 7.41,-19.137 H 5.627 c -0.39,0 -0.585,0.251 -0.641,0.473 l -4.15,15.07 -3.761,-15.07 c -0.056,-0.222 -0.251,-0.473 -0.641,-0.473 h -1.587 c -0.335,0 -0.502,0.223 -0.558,0.473 l -4.819,17.661 c -0.083,0.279 -0.223,0.502 -0.501,0.613 -0.39,0.167 -0.864,0.195 -1.17,0.223 -0.167,0.028 -0.251,0.111 -0.251,0.25 0,0.223 0.056,0.613 0.14,0.836 0.055,0.195 0.167,0.223 0.334,0.223 h 4.791 c 0.167,0 0.279,-0.028 0.334,-0.223 0.084,-0.223 0.14,-0.613 0.14,-0.836 0,-0.139 -0.084,-0.222 -0.251,-0.25 -0.334,-0.028 -0.724,-0.112 -1.059,-0.251 -0.222,-0.083 -0.25,-0.278 -0.167,-0.557 l 4.039,-15.962 z"
       style="fill:#ffffff;fill-opacity:1;fill-rule:nonzero;stroke:none"
       transform="matrix(1.3333333,0,0,-1.3333333,333.90867,247.7936)"
       clip-path="url(#clipPath68)" />
    <path
       id="path69"
       d="m 0,0 v -7.187 c 0,-0.334 0.195,-0.557 0.585,-0.641 0.613,-0.139 1.337,-0.278 1.95,-0.334 0.167,-0.028 0.251,-0.111 0.251,-0.25 0,-0.251 -0.056,-0.641 -0.14,-0.892 C 2.591,-9.499 2.451,-9.527 2.284,-9.527 h -6.351 c -0.167,0 -0.306,0.028 -0.362,0.223 -0.084,0.251 -0.139,0.641 -0.139,0.892 0,0.139 0.083,0.25 0.25,0.25 0.474,0.028 1.003,0.084 1.505,0.223 0.417,0.111 0.585,0.585 0.585,0.919 V 8.078 c 0,0.585 -0.307,0.864 -0.613,1.003 -0.39,0.195 -0.725,0.307 -1.17,0.39 -0.167,0.028 -0.251,0.112 -0.251,0.251 0.028,0.278 0.084,0.501 0.139,0.724 0.056,0.223 0.195,0.279 0.474,0.334 0.696,0.112 2.563,0.168 3.454,-0.027 h 9.861 c 0.334,0 0.529,-0.168 0.502,-0.53 C 10.056,9.137 10,8.162 10,7.048 10,6.797 9.973,6.574 9.778,6.546 9.443,6.518 9.081,6.546 8.747,6.63 8.58,6.686 8.524,6.825 8.524,7.02 8.44,7.521 8.329,8.05 8.106,8.552 7.995,8.83 7.8,8.942 7.438,8.942 H 0 V 1.811 h 5.098 c 0.334,0 0.557,0.139 0.696,0.418 0.112,0.195 0.223,0.473 0.279,0.78 0.028,0.167 0.111,0.25 0.25,0.25 C 6.63,3.287 6.936,3.287 7.243,3.231 7.438,3.204 7.493,3.036 7.466,2.869 7.382,2.034 7.354,1.616 7.354,0.919 7.354,0 7.382,-0.473 7.466,-1.142 7.466,-1.309 7.438,-1.476 7.243,-1.504 6.964,-1.56 6.658,-1.56 6.323,-1.56 6.184,-1.56 6.101,-1.476 6.073,-1.309 5.989,-0.947 5.933,-0.752 5.85,-0.501 5.738,-0.167 5.543,0 5.209,0 Z"
       style="fill:#ffffff;fill-opacity:1;fill-rule:nonzero;stroke:none"
       transform="matrix(1.3333333,0,0,-1.3333333,371.20733,260.60747)"
       clip-path="url(#clipPath70)" />
    <path
       id="path71"
       d="M 0,0 C 0,-0.334 0.195,-0.529 0.585,-0.641 1.031,-0.78 1.476,-0.864 1.922,-0.919 2.089,-0.947 2.173,-1.031 2.173,-1.17 2.173,-1.421 2.117,-1.811 2.033,-2.061 1.978,-2.256 1.838,-2.284 1.671,-2.284 h -5.738 c -0.167,0 -0.307,0.028 -0.362,0.223 -0.084,0.25 -0.139,0.64 -0.139,0.891 0,0.139 0.083,0.223 0.25,0.251 0.502,0.055 0.975,0.139 1.505,0.278 0.39,0.112 0.585,0.307 0.585,0.641 v 15.767 c 0,0.334 -0.195,0.529 -0.585,0.64 -0.53,0.14 -0.864,0.223 -1.365,0.279 -0.168,0.028 -0.251,0.111 -0.251,0.25 0,0.251 0.055,0.585 0.139,0.836 0.056,0.195 0.195,0.223 0.362,0.223 h 5.599 c 0.167,0 0.307,-0.028 0.362,-0.223 0.084,-0.251 0.14,-0.585 0.14,-0.836 0,-0.139 -0.084,-0.222 -0.251,-0.25 C 1.476,16.63 1.031,16.547 0.585,16.407 0.195,16.296 0,16.101 0,15.767 Z"
       style="fill:#ffffff;fill-opacity:1;fill-rule:nonzero;stroke:none"
       transform="matrix(1.3333333,0,0,-1.3333333,393.8672,270.26427)"
       clip-path="url(#clipPath72)" />
    <path
       id="path73"
       d="m 0,0 c 3.036,0 5.098,1.17 5.098,3.816 0,2.758 -1.895,3.789 -4.903,3.789 h -3.259 l 0,-7.605 z m 7.967,-10.864 c -2.201,0.251 -3.454,2.173 -4.179,3.733 L 1.309,-1.755 C 0.919,-1.811 0.529,-1.811 0.139,-1.811 H -3.064 V -8.58 c 0,-0.334 0.195,-0.529 0.585,-0.64 0.446,-0.14 0.836,-0.223 1.281,-0.279 0.167,-0.028 0.251,-0.111 0.251,-0.251 0,-0.25 -0.056,-0.64 -0.139,-0.891 -0.056,-0.195 -0.195,-0.223 -0.363,-0.223 h -5.682 c -0.167,0 -0.307,0.028 -0.362,0.223 -0.084,0.251 -0.14,0.641 -0.14,0.891 0,0.14 0.084,0.251 0.251,0.251 0.502,0.028 1.031,0.112 1.532,0.251 0.39,0.111 0.557,0.334 0.557,0.668 V 6.741 c 0,0.585 -0.306,0.864 -0.612,1.003 -0.39,0.195 -0.725,0.306 -1.17,0.39 -0.168,0.028 -0.251,0.111 -0.251,0.251 0.028,0.278 0.083,0.501 0.139,0.724 0.056,0.223 0.195,0.279 0.474,0.334 0.696,0.112 2.507,0.167 3.398,-0.028 h 3.259 c 5.544,0 7.382,-2.423 7.382,-5.432 0,-2.618 -1.476,-4.401 -3.76,-5.236 l 2.479,-5.321 c 0.557,-1.198 1.448,-2.256 2.507,-2.619 0.446,-0.167 0.891,-0.222 1.476,-0.278 0.167,-0.028 0.251,-0.111 0.251,-0.251 0,-0.25 -0.056,-0.668 -0.139,-0.919 -0.056,-0.195 -0.195,-0.223 -0.363,-0.251 -0.25,-0.028 -1.058,-0.055 -1.81,0.028"
       style="fill:#ffffff;fill-opacity:1;fill-rule:nonzero;stroke:none"
       transform="matrix(1.3333333,0,0,-1.3333333,408.79973,258.82467)"
       clip-path="url(#clipPath74)" />
    <path
       id="path75"
       d="m 0,0 -6.212,-16.268 c -0.111,-0.334 -0.306,-0.613 -0.78,-0.613 h -1.059 c -0.501,0 -0.696,0.279 -0.807,0.585 L -14.875,0 v -14.541 c 0,-0.362 0.167,-0.613 0.501,-0.724 0.307,-0.112 0.585,-0.167 0.975,-0.251 0.167,-0.028 0.251,-0.111 0.251,-0.251 0,-0.25 -0.056,-0.612 -0.139,-0.863 -0.056,-0.195 -0.195,-0.223 -0.363,-0.223 h -5.153 c -0.167,0 -0.306,0.028 -0.362,0.223 -0.084,0.251 -0.139,0.64 -0.139,0.891 0,0.14 0.083,0.223 0.25,0.251 0.53,0.056 1.031,0.139 1.56,0.278 0.39,0.112 0.53,0.418 0.53,0.753 V 1.114 c 0,0.334 -0.168,0.529 -0.53,0.697 -0.306,0.139 -0.501,0.195 -0.975,0.306 -0.167,0.028 -0.25,0.112 -0.25,0.251 0,0.25 0.055,0.613 0.139,0.863 0.056,0.195 0.278,0.195 0.446,0.195 h 3.704 c 0.53,0 0.808,-0.306 0.92,-0.613 l 6.295,-17.298 6.324,17.354 c 0.167,0.418 0.445,0.557 0.863,0.557 h 3.371 c 0.167,0 0.39,0 0.445,-0.195 C 3.872,2.981 3.928,2.618 3.928,2.368 3.928,2.229 3.844,2.145 3.677,2.117 3.203,2.006 3.008,1.95 2.702,1.811 2.34,1.643 2.173,1.448 2.173,1.114 v -15.571 c 0,-0.335 0.139,-0.641 0.529,-0.753 0.529,-0.139 1.031,-0.222 1.56,-0.278 0.167,-0.028 0.251,-0.111 0.251,-0.251 0,-0.251 -0.056,-0.64 -0.14,-0.891 -0.055,-0.195 -0.195,-0.223 -0.362,-0.223 h -5.237 c -0.167,0 -0.306,0.028 -0.362,0.223 -0.083,0.251 -0.139,0.613 -0.139,0.863 0,0.14 0.084,0.223 0.251,0.251 0.39,0.084 0.668,0.139 0.975,0.251 0.334,0.111 0.501,0.362 0.501,0.724 z"
       style="fill:#ffffff;fill-opacity:1;fill-rule:nonzero;stroke:none"
       transform="matrix(1.3333333,0,0,-1.3333333,449.0284,250.8392)"
       clip-path="url(#clipPath76)" />
    <path
       id="path77"
       d="m 0,0 v 14.875 c 0,0.585 -0.306,0.864 -0.613,1.003 -0.39,0.195 -0.724,0.306 -1.17,0.39 -0.167,0.028 -0.251,0.111 -0.251,0.251 0.028,0.278 0.084,0.501 0.14,0.724 0.055,0.223 0.195,0.278 0.473,0.334 0.697,0.112 2.563,0.167 3.455,-0.028 h 9.694 c 0.334,0 0.417,-0.25 0.389,-0.557 l -0.195,-1.588 c -0.055,-0.529 -0.083,-1.058 -0.111,-1.42 -0.028,-0.223 0,-0.307 -0.195,-0.335 -0.306,-0.027 -0.668,-0.167 -1.003,-0.111 -0.195,0.028 -0.223,0.167 -0.251,0.362 -0.055,0.53 -0.139,0.752 -0.278,1.226 -0.111,0.418 -0.474,0.613 -0.919,0.613 H 2.228 V 8.691 H 7.8 c 0.334,0 0.557,0.167 0.696,0.418 0.139,0.223 0.223,0.474 0.279,0.78 0.028,0.167 0.111,0.251 0.25,0.251 0.363,0.027 0.725,0.027 1.031,-0.028 0.195,-0.028 0.251,-0.195 0.223,-0.362 -0.084,-0.557 -0.112,-1.254 -0.112,-1.95 0,-0.669 0.028,-1.393 0.112,-2.062 0,-0.167 -0.028,-0.334 -0.223,-0.362 C 9.777,5.32 9.471,5.32 9.137,5.32 8.998,5.32 8.914,5.404 8.886,5.571 8.803,5.933 8.747,6.128 8.663,6.379 8.552,6.713 8.357,6.88 8.023,6.88 H 2.228 v -7.799 h 7.466 c 0.446,0 1.003,0.195 1.142,0.613 0.139,0.39 0.251,0.975 0.306,1.504 0.028,0.195 0.056,0.306 0.251,0.334 0.335,0.056 0.529,0.056 0.836,0.028 0.195,-0.028 0.223,-0.112 0.223,-0.334 0,-0.836 0.055,-2.479 0.195,-3.399 0.055,-0.306 -0.056,-0.557 -0.39,-0.557 H -1.839 c -0.167,0 -0.306,0.028 -0.362,0.223 -0.083,0.251 -0.139,0.641 -0.139,0.891 0,0.14 0.084,0.251 0.251,0.251 0.501,0.028 1.058,0.112 1.56,0.251 C -0.111,-1.003 0,-0.557 0,0"
       style="fill:#ffffff;fill-opacity:1;fill-rule:nonzero;stroke:none"
       transform="matrix(1.3333333,0,0,-1.3333333,470.4296,269.67)"
       clip-path="url(#clipPath78)" />
    <path
       id="path79"
       d="m 0,0 c 0,-4.93 -3.343,-7.716 -7.298,-7.716 -4.931,0 -7.466,3.008 -7.466,7.855 v 10.502 c 0,0.334 -0.223,0.502 -0.585,0.641 -0.445,0.167 -1.086,0.251 -1.504,0.278 -0.167,0 -0.251,0.112 -0.251,0.251 0,0.251 0.056,0.641 0.14,0.891 0.055,0.195 0.195,0.223 0.362,0.223 h 5.627 c 0.167,0 0.306,-0.028 0.362,-0.223 0.083,-0.25 0.139,-0.612 0.139,-0.863 0,-0.139 -0.083,-0.223 -0.251,-0.251 -0.39,-0.083 -0.612,-0.111 -1.058,-0.25 -0.39,-0.112 -0.557,-0.307 -0.557,-0.641 v -10.92 c 0,-3.454 1.727,-5.599 4.93,-5.599 2.87,0 5.293,1.922 5.293,5.766 v 10.697 c 0,0.334 -0.223,0.502 -0.585,0.641 -0.39,0.139 -0.78,0.223 -1.198,0.278 -0.167,0.028 -0.25,0.112 -0.25,0.251 0,0.251 0.055,0.641 0.139,0.891 0.056,0.195 0.195,0.223 0.362,0.223 h 5.488 c 0.167,0 0.306,-0.028 0.362,-0.223 C 2.284,12.452 2.34,12.062 2.34,11.811 2.34,11.672 2.256,11.588 2.089,11.56 1.644,11.505 1.031,11.421 0.585,11.282 0.195,11.17 0,10.975 0,10.641 Z"
       style="fill:#ffffff;fill-opacity:1;fill-rule:nonzero;stroke:none"
       transform="matrix(1.3333333,0,0,-1.3333333,512.73813,263.50453)"
       clip-path="url(#clipPath80)" />
    <path
       id="path81"
       d="m 0,0 c 0.418,0 0.724,-0.139 0.975,-0.557 l 10.335,-16.63 v 14.903 c 0,0.334 -0.195,0.529 -0.585,0.641 -0.446,0.139 -0.892,0.222 -1.338,0.278 -0.167,0.028 -0.25,0.112 -0.25,0.251 0,0.25 0.056,0.64 0.139,0.891 C 9.332,-0.028 9.471,0 9.638,0 h 5.655 c 0.167,0 0.306,-0.028 0.362,-0.223 0.084,-0.251 0.139,-0.641 0.139,-0.891 0,-0.139 -0.083,-0.223 -0.25,-0.251 -0.502,-0.056 -0.975,-0.139 -1.505,-0.278 -0.389,-0.112 -0.585,-0.307 -0.585,-0.641 v -17.243 c 0,-0.474 -0.306,-0.752 -0.752,-0.752 h -1.476 c -0.39,0 -0.669,0.167 -0.836,0.418 L 0.111,-3.287 v -14.708 c 0,-0.334 0.14,-0.501 0.502,-0.669 0.334,-0.139 0.752,-0.222 1.198,-0.278 0.167,-0.028 0.25,-0.112 0.25,-0.251 0,-0.251 -0.055,-0.613 -0.139,-0.863 -0.056,-0.195 -0.195,-0.223 -0.362,-0.223 h -5.376 c -0.168,0 -0.307,0.028 -0.362,0.223 -0.084,0.25 -0.14,0.64 -0.14,0.891 0,0.139 0.084,0.251 0.251,0.251 0.501,0.028 1.058,0.111 1.532,0.25 0.39,0.112 0.557,0.39 0.557,0.725 v 15.822 c -0.083,0.278 -0.334,0.418 -0.613,0.529 -0.278,0.112 -0.473,0.167 -0.891,0.279 -0.167,0.056 -0.251,0.083 -0.251,0.223 0,0.25 0.056,0.612 0.139,0.863 C -3.538,-0.028 -3.426,0 -3.259,0 Z"
       style="fill:#ffffff;fill-opacity:1;fill-rule:nonzero;stroke:none"
       transform="matrix(1.3333333,0,0,-1.3333333,523.10587,246.2708)"
       clip-path="url(#clipPath82)" />
    <path
       id="path83"
       d="M 0,0 V -5.85 C 0,-6.184 0.195,-6.379 0.585,-6.491 1.031,-6.63 1.56,-6.713 2.006,-6.769 2.173,-6.797 2.256,-6.88 2.256,-7.02 2.256,-7.271 2.201,-7.66 2.117,-7.911 2.061,-8.106 1.922,-8.134 1.755,-8.134 h -5.822 c -0.167,0 -0.306,0.028 -0.362,0.223 -0.084,0.251 -0.139,0.64 -0.139,0.891 0,0.14 0.083,0.223 0.25,0.251 0.502,0.056 1.115,0.139 1.505,0.251 0.39,0.111 0.585,0.334 0.585,0.668 V 0 l -5.683,10.028 c -0.167,0.251 -0.306,0.418 -0.696,0.557 -0.363,0.14 -0.641,0.195 -1.143,0.251 -0.167,0.028 -0.25,0.112 -0.25,0.251 0,0.25 0.055,0.585 0.139,0.835 0.056,0.195 0.195,0.223 0.362,0.223 h 5.126 c 0.167,0 0.306,-0.028 0.362,-0.223 0.083,-0.25 0.139,-0.585 0.139,-0.835 0,-0.139 -0.083,-0.251 -0.251,-0.251 -0.417,-0.028 -0.807,-0.111 -1.086,-0.195 -0.279,-0.084 -0.362,-0.306 -0.195,-0.557 l 4.513,-8.023 4.847,8.023 c 0.167,0.251 0.083,0.473 -0.195,0.557 -0.279,0.084 -0.557,0.167 -0.975,0.195 -0.168,0 -0.251,0.112 -0.251,0.251 0,0.25 0.056,0.585 0.139,0.835 0.056,0.195 0.195,0.223 0.362,0.223 h 4.569 c 0.167,0 0.306,-0.028 0.362,-0.223 0.084,-0.25 0.139,-0.585 0.139,-0.835 0,-0.139 -0.083,-0.223 -0.251,-0.251 C 7.354,10.78 7.159,10.725 6.797,10.585 6.407,10.446 6.268,10.279 6.101,10.028 Z"
       style="fill:#ffffff;fill-opacity:1;fill-rule:nonzero;stroke:none"
       transform="matrix(1.3333333,0,0,-1.3333333,558.61827,262.46453)"
       clip-path="url(#clipPath84)" />
    <path
       id="path85"
       d="m 0,0 c 0,-4.93 -3.343,-7.716 -7.298,-7.716 -4.931,0 -7.466,3.008 -7.466,7.855 v 10.502 c 0,0.334 -0.223,0.502 -0.585,0.641 -0.445,0.167 -1.086,0.251 -1.504,0.278 -0.167,0 -0.251,0.112 -0.251,0.251 0,0.251 0.056,0.641 0.14,0.891 0.055,0.195 0.195,0.223 0.362,0.223 h 5.627 c 0.167,0 0.306,-0.028 0.362,-0.223 0.083,-0.25 0.139,-0.612 0.139,-0.863 0,-0.139 -0.083,-0.223 -0.251,-0.251 -0.39,-0.083 -0.612,-0.111 -1.058,-0.25 -0.39,-0.112 -0.557,-0.307 -0.557,-0.641 v -10.92 c 0,-3.454 1.727,-5.599 4.93,-5.599 2.869,0 5.293,1.922 5.293,5.766 v 10.697 c 0,0.334 -0.223,0.502 -0.585,0.641 -0.39,0.139 -0.78,0.223 -1.198,0.278 -0.167,0.028 -0.251,0.112 -0.251,0.251 0,0.251 0.056,0.641 0.14,0.891 0.055,0.195 0.195,0.223 0.362,0.223 h 5.488 c 0.167,0 0.306,-0.028 0.362,-0.223 C 2.284,12.452 2.34,12.062 2.34,11.811 2.34,11.672 2.256,11.588 2.089,11.56 1.644,11.505 1.031,11.421 0.585,11.282 0.195,11.17 0,10.975 0,10.641 Z"
       style="fill:#ffffff;fill-opacity:1;fill-rule:nonzero;stroke:none"
       transform="matrix(1.3333333,0,0,-1.3333333,593.35,263.50453)"
       clip-path="url(#clipPath86)" />
    <path
       id="path87"
       d="M 0,0 H 7.243 C 7.688,0 8.245,0.167 8.385,0.585 8.524,0.975 8.635,1.504 8.691,2.034 8.719,2.229 8.747,2.34 8.942,2.368 9.276,2.423 9.471,2.423 9.777,2.396 9.972,2.368 10,2.284 10,2.061 10,1.226 10.056,-0.418 10.195,-1.337 10.251,-1.643 10.14,-1.894 9.805,-1.894 H -4.067 c -0.167,0 -0.306,0.028 -0.362,0.223 -0.084,0.25 -0.139,0.64 -0.139,0.891 0,0.139 0.083,0.251 0.25,0.251 0.502,0 1.059,0.083 1.532,0.25 0.418,0.14 0.557,0.53 0.557,1.115 v 15.265 c 0,0.334 -0.195,0.557 -0.501,0.641 -0.529,0.139 -0.752,0.222 -1.253,0.278 -0.168,0.028 -0.251,0.112 -0.251,0.251 0,0.25 0.056,0.64 0.139,0.891 0.056,0.195 0.195,0.223 0.362,0.223 h 5.488 c 0.167,0 0.306,-0.028 0.362,-0.223 0.084,-0.251 0.139,-0.641 0.139,-0.891 0,-0.139 -0.083,-0.223 -0.25,-0.251 C 1.56,16.964 1.003,16.881 0.557,16.742 0.167,16.63 0,16.435 0,16.101 Z"
       style="fill:#ffffff;fill-opacity:1;fill-rule:nonzero;stroke:none"
       transform="matrix(1.3333333,0,0,-1.3333333,604.05187,270.78427)"
       clip-path="url(#clipPath88)" />


  </g>
</svg>
